<svg xmlns="http://www.w3.org/2000/svg" viewBox="0 0 156 156"><path d="M155.4 60.5c-1.8 9.3-7.1 17.8-14.9 24-.3.3-.6.5-.9.7 1.6 4.2 2.4 8.5 2.4 13.1 0 19.9-16.1 36-36 36-7.8 0-15.4-2.6-21.7-7.3.5-.5.9-1.1 1.3-1.7 2.9-3.8 5.1-8 6.7-12.5 3.7 3.5 8.6 5.4 13.7 5.4 11 0 20-9 20-20 0-4.1-1.2-8.1-3.6-11.4L117 79l8.5-4c1.8-.8 3.5-1.9 5-3.1 9.6-7.5 12.3-20.1 6.1-28-3.1-4-7.9-6.1-13.6-6.1-9.8 0-17.1 6-22.3 13-2 2.7-3.7 5.5-5.1 8.2-2.3 4.5-4.3 9.5-5.9 15-2.3 8.3-3.7 17.2-3.7 24.2 0 4-.7 7.9-1.9 11.7-1.2 3.6-3.1 7-5.4 10.1-1.5 2-3.2 3.8-5.1 5.4-6.5 5.7-14.9 8.9-23.6 8.9-3.3 0-6.6-.5-9.6-1.3C25.2 128.7 14 114.8 14 98.2c0-4.5.8-8.9 2.4-13.1-.3-.2-.6-.5-.9-.7C7.7 78.2 2.4 69.7.6 60.4-1.2 50.8 1 41.3 6.7 34c6.1-7.8 15.6-12.3 26.1-12.3 9.3 0 17.8 3.1 25.4 9.2 5.6 4.5 10.6 10.6 14.8 18.2-1.4 2.9-2.8 6-4 9.3-1.5 4-2.8 8.1-3.9 12.3-1.4-4.2-3.1-8.2-4.9-11.8-5-9.7-13.8-21.2-27.3-21.2-5.7 0-10.5 2.2-13.6 6.1-6.2 7.9-3.5 20.5 6.1 28 1.6 1.2 3.3 2.3 5 3.1l8.5 4-5.4 7.8c-2.3 3.4-3.6 7.3-3.6 11.4 0 7.6 4.2 14.2 10.4 17.6 2.9 1.6 6.1 2.5 9.6 2.5 5.9 0 11.4-2.6 15.3-7.1 3.1-3.6 4.8-8.2 4.8-13 0-3.4.3-9.1 1.6-16.6 1.3-7 3.1-13.8 5.6-20.1 1.2-3.2 2.6-6.3 4-9.1l.1-.1c.1-.2.2-.5.3-.7 1.5-3 3.2-5.7 4.9-8.3 3.4-4.9 7.1-9.1 11.2-12.4 7.6-6.1 16.1-9.2 25.4-9.2 10.5 0 20 4.5 26.1 12.2l.2.2c5.7 7.5 7.8 16.9 6 26.5z" fill="#7559ff"/></svg>